solid exported
	facet normal 1 0 0
		outer loop
			vertex 0.33 2.6 0.25
			vertex 0.33 1.6 0.25
			vertex 0.33 2.6 -0.25
		endloop
	endfacet
	facet normal 1 0 0
		outer loop
			vertex 0.33 1.6 0.25
			vertex 0.33 1.6 -0.25
			vertex 0.33 2.6 -0.25
		endloop
	endfacet
	facet normal -1 0 0
		outer loop
			vertex -0.16999999999999998 2.6 -0.25
			vertex -0.16999999999999998 1.6 -0.25
			vertex -0.16999999999999998 2.6 0.25
		endloop
	endfacet
	facet normal -1 0 0
		outer loop
			vertex -0.16999999999999998 1.6 -0.25
			vertex -0.16999999999999998 1.6 0.25
			vertex -0.16999999999999998 2.6 0.25
		endloop
	endfacet
	facet normal 0 1 0
		outer loop
			vertex -0.16999999999999998 2.6 -0.25
			vertex -0.16999999999999998 2.6 0.25
			vertex 0.33 2.6 -0.25
		endloop
	endfacet
	facet normal 0 1 0
		outer loop
			vertex -0.16999999999999998 2.6 0.25
			vertex 0.33 2.6 0.25
			vertex 0.33 2.6 -0.25
		endloop
	endfacet
	facet normal 0 -1 0
		outer loop
			vertex -0.16999999999999998 1.6 0.25
			vertex -0.16999999999999998 1.6 -0.25
			vertex 0.33 1.6 0.25
		endloop
	endfacet
	facet normal 0 -1 0
		outer loop
			vertex -0.16999999999999998 1.6 -0.25
			vertex 0.33 1.6 -0.25
			vertex 0.33 1.6 0.25
		endloop
	endfacet
	facet normal 0 0 1
		outer loop
			vertex -0.16999999999999998 2.6 0.25
			vertex -0.16999999999999998 1.6 0.25
			vertex 0.33 2.6 0.25
		endloop
	endfacet
	facet normal 0 0 1
		outer loop
			vertex -0.16999999999999998 1.6 0.25
			vertex 0.33 1.6 0.25
			vertex 0.33 2.6 0.25
		endloop
	endfacet
	facet normal 0 0 -1
		outer loop
			vertex 0.33 2.6 -0.25
			vertex 0.33 1.6 -0.25
			vertex -0.16999999999999998 2.6 -0.25
		endloop
	endfacet
	facet normal 0 0 -1
		outer loop
			vertex 0.33 1.6 -0.25
			vertex -0.16999999999999998 1.6 -0.25
			vertex -0.16999999999999998 2.6 -0.25
		endloop
	endfacet
	facet normal 1 0 0
		outer loop
			vertex 0.255 2.525 2.0557214055363024
			vertex 0.255 2.1750000000000003 2.0557214055363024
			vertex 0.255 2.525 0.2557214055363025
		endloop
	endfacet
	facet normal 1 0 0
		outer loop
			vertex 0.255 2.1750000000000003 2.0557214055363024
			vertex 0.255 2.1750000000000003 0.2557214055363025
			vertex 0.255 2.525 0.2557214055363025
		endloop
	endfacet
	facet normal -1 0 0
		outer loop
			vertex -0.09499999999999999 2.525 0.2557214055363025
			vertex -0.09499999999999999 2.1750000000000003 0.2557214055363025
			vertex -0.09499999999999999 2.525 2.0557214055363024
		endloop
	endfacet
	facet normal -1 0 0
		outer loop
			vertex -0.09499999999999999 2.1750000000000003 0.2557214055363025
			vertex -0.09499999999999999 2.1750000000000003 2.0557214055363024
			vertex -0.09499999999999999 2.525 2.0557214055363024
		endloop
	endfacet
	facet normal 0 1 0
		outer loop
			vertex -0.09499999999999999 2.525 0.2557214055363025
			vertex -0.09499999999999999 2.525 2.0557214055363024
			vertex 0.255 2.525 0.2557214055363025
		endloop
	endfacet
	facet normal 0 1 0
		outer loop
			vertex -0.09499999999999999 2.525 2.0557214055363024
			vertex 0.255 2.525 2.0557214055363024
			vertex 0.255 2.525 0.2557214055363025
		endloop
	endfacet
	facet normal 0 -1 0
		outer loop
			vertex -0.09499999999999999 2.1750000000000003 2.0557214055363024
			vertex -0.09499999999999999 2.1750000000000003 0.2557214055363025
			vertex 0.255 2.1750000000000003 2.0557214055363024
		endloop
	endfacet
	facet normal 0 -1 0
		outer loop
			vertex -0.09499999999999999 2.1750000000000003 0.2557214055363025
			vertex 0.255 2.1750000000000003 0.2557214055363025
			vertex 0.255 2.1750000000000003 2.0557214055363024
		endloop
	endfacet
	facet normal 0 0 1
		outer loop
			vertex -0.09499999999999999 2.525 2.0557214055363024
			vertex -0.09499999999999999 2.1750000000000003 2.0557214055363024
			vertex 0.255 2.525 2.0557214055363024
		endloop
	endfacet
	facet normal 0 0 1
		outer loop
			vertex -0.09499999999999999 2.1750000000000003 2.0557214055363024
			vertex 0.255 2.1750000000000003 2.0557214055363024
			vertex 0.255 2.525 2.0557214055363024
		endloop
	endfacet
	facet normal 0 0 -1
		outer loop
			vertex 0.255 2.525 0.2557214055363025
			vertex 0.255 2.1750000000000003 0.2557214055363025
			vertex -0.09499999999999999 2.525 0.2557214055363025
		endloop
	endfacet
	facet normal 0 0 -1
		outer loop
			vertex 0.255 2.1750000000000003 0.2557214055363025
			vertex -0.09499999999999999 2.1750000000000003 0.2557214055363025
			vertex -0.09499999999999999 2.525 0.2557214055363025
		endloop
	endfacet
	facet normal 0.38268345145128857 0 0.9238795246055242
		outer loop
			vertex 0.08 2.275 2.2
			vertex 0.08 2.0749999999999997 2.2
			vertex 0.22142135381698608 2.275 2.141421353816986
		endloop
	endfacet
	facet normal 0.38268345145128857 0 0.9238795246055242
		outer loop
			vertex 0.08 2.0749999999999997 2.2
			vertex 0.22142135381698608 2.0749999999999997 2.141421353816986
			vertex 0.22142135381698608 2.275 2.141421353816986
		endloop
	endfacet
	facet normal 0.9238795246055242 0 0.3826834514512887
		outer loop
			vertex 0.22142135381698608 2.275 2.141421353816986
			vertex 0.22142135381698608 2.0749999999999997 2.141421353816986
			vertex 0.28 2.275 2
		endloop
	endfacet
	facet normal 0.9238795246055242 0 0.3826834514512887
		outer loop
			vertex 0.22142135381698608 2.0749999999999997 2.141421353816986
			vertex 0.28 2.0749999999999997 2
			vertex 0.28 2.275 2
		endloop
	endfacet
	facet normal 0.9238795246055242 0 -0.3826834514512885
		outer loop
			vertex 0.28 2.275 2
			vertex 0.28 2.0749999999999997 2
			vertex 0.22142135381698608 2.275 1.8585786461830138
		endloop
	endfacet
	facet normal 0.9238795246055242 0 -0.3826834514512885
		outer loop
			vertex 0.28 2.0749999999999997 2
			vertex 0.22142135381698608 2.0749999999999997 1.8585786461830138
			vertex 0.22142135381698608 2.275 1.8585786461830138
		endloop
	endfacet
	facet normal 0.3826834514512887 0 -0.9238795246055242
		outer loop
			vertex 0.22142135381698608 2.275 1.8585786461830138
			vertex 0.22142135381698608 2.0749999999999997 1.8585786461830138
			vertex 0.08000000000000003 2.275 1.8
		endloop
	endfacet
	facet normal 0.3826834514512887 0 -0.9238795246055242
		outer loop
			vertex 0.22142135381698608 2.0749999999999997 1.8585786461830138
			vertex 0.08000000000000003 2.0749999999999997 1.8
			vertex 0.08000000000000003 2.275 1.8
		endloop
	endfacet
	facet normal -0.3826834514512885 0 -0.9238795246055242
		outer loop
			vertex 0.08000000000000003 2.275 1.8
			vertex 0.08000000000000003 2.0749999999999997 1.8
			vertex -0.06142135381698609 2.275 1.8585786461830138
		endloop
	endfacet
	facet normal -0.3826834514512885 0 -0.9238795246055242
		outer loop
			vertex 0.08000000000000003 2.0749999999999997 1.8
			vertex -0.06142135381698609 2.0749999999999997 1.8585786461830138
			vertex -0.06142135381698609 2.275 1.8585786461830138
		endloop
	endfacet
	facet normal -0.9238795246055242 0 -0.3826834514512887
		outer loop
			vertex -0.06142135381698609 2.275 1.8585786461830138
			vertex -0.06142135381698609 2.0749999999999997 1.8585786461830138
			vertex -0.12000000000000001 2.275 2
		endloop
	endfacet
	facet normal -0.9238795246055242 0 -0.3826834514512887
		outer loop
			vertex -0.06142135381698609 2.0749999999999997 1.8585786461830138
			vertex -0.12000000000000001 2.0749999999999997 2
			vertex -0.12000000000000001 2.275 2
		endloop
	endfacet
	facet normal -0.9238795246055242 0 0.38268345145128846
		outer loop
			vertex -0.12000000000000001 2.275 2
			vertex -0.12000000000000001 2.0749999999999997 2
			vertex -0.06142135381698609 2.275 2.141421353816986
		endloop
	endfacet
	facet normal -0.9238795246055242 0 0.38268345145128846
		outer loop
			vertex -0.12000000000000001 2.0749999999999997 2
			vertex -0.06142135381698609 2.0749999999999997 2.141421353816986
			vertex -0.06142135381698609 2.275 2.141421353816986
		endloop
	endfacet
	facet normal -0.3826834514512887 0 0.9238795246055242
		outer loop
			vertex -0.06142135381698609 2.275 2.141421353816986
			vertex -0.06142135381698609 2.0749999999999997 2.141421353816986
			vertex 0.07999999999999995 2.275 2.2
		endloop
	endfacet
	facet normal -0.3826834514512887 0 0.9238795246055242
		outer loop
			vertex -0.06142135381698609 2.0749999999999997 2.141421353816986
			vertex 0.07999999999999995 2.0749999999999997 2.2
			vertex 0.07999999999999995 2.275 2.2
		endloop
	endfacet
	facet normal 0 1 0
		outer loop
			vertex 0.08 2.275 2.2
			vertex 0.22142135381698608 2.275 2.141421353816986
			vertex 0.08 2.275 2
		endloop
	endfacet
	facet normal 0 1 0
		outer loop
			vertex 0.22142135381698608 2.275 2.141421353816986
			vertex 0.28 2.275 2
			vertex 0.08 2.275 2
		endloop
	endfacet
	facet normal 0 1 0
		outer loop
			vertex 0.28 2.275 2
			vertex 0.22142135381698608 2.275 1.8585786461830138
			vertex 0.08 2.275 2
		endloop
	endfacet
	facet normal 0 1 0
		outer loop
			vertex 0.22142135381698608 2.275 1.8585786461830138
			vertex 0.08000000000000003 2.275 1.8
			vertex 0.08 2.275 2
		endloop
	endfacet
	facet normal 0 1 0
		outer loop
			vertex 0.08000000000000003 2.275 1.8
			vertex -0.06142135381698609 2.275 1.8585786461830138
			vertex 0.08 2.275 2
		endloop
	endfacet
	facet normal 0 1 0
		outer loop
			vertex -0.06142135381698609 2.275 1.8585786461830138
			vertex -0.12000000000000001 2.275 2
			vertex 0.08 2.275 2
		endloop
	endfacet
	facet normal 0 1 0
		outer loop
			vertex -0.12000000000000001 2.275 2
			vertex -0.06142135381698609 2.275 2.141421353816986
			vertex 0.08 2.275 2
		endloop
	endfacet
	facet normal 0 1 0
		outer loop
			vertex -0.06142135381698609 2.275 2.141421353816986
			vertex 0.07999999999999995 2.275 2.2
			vertex 0.08 2.275 2
		endloop
	endfacet
	facet normal 0 -1 0
		outer loop
			vertex 0.22142135381698608 2.0749999999999997 2.141421353816986
			vertex 0.08 2.0749999999999997 2.2
			vertex 0.08 2.0749999999999997 2
		endloop
	endfacet
	facet normal 0 -1 0
		outer loop
			vertex 0.28 2.0749999999999997 2
			vertex 0.22142135381698608 2.0749999999999997 2.141421353816986
			vertex 0.08 2.0749999999999997 2
		endloop
	endfacet
	facet normal 0 -1 0
		outer loop
			vertex 0.22142135381698608 2.0749999999999997 1.8585786461830138
			vertex 0.28 2.0749999999999997 2
			vertex 0.08 2.0749999999999997 2
		endloop
	endfacet
	facet normal 0 -1 0
		outer loop
			vertex 0.08000000000000003 2.0749999999999997 1.8
			vertex 0.22142135381698608 2.0749999999999997 1.8585786461830138
			vertex 0.08 2.0749999999999997 2
		endloop
	endfacet
	facet normal 0 -1 0
		outer loop
			vertex -0.06142135381698609 2.0749999999999997 1.8585786461830138
			vertex 0.08000000000000003 2.0749999999999997 1.8
			vertex 0.08 2.0749999999999997 2
		endloop
	endfacet
	facet normal 0 -1 0
		outer loop
			vertex -0.12000000000000001 2.0749999999999997 2
			vertex -0.06142135381698609 2.0749999999999997 1.8585786461830138
			vertex 0.08 2.0749999999999997 2
		endloop
	endfacet
	facet normal 0 -1 0
		outer loop
			vertex -0.06142135381698609 2.0749999999999997 2.141421353816986
			vertex -0.12000000000000001 2.0749999999999997 2
			vertex 0.08 2.0749999999999997 2
		endloop
	endfacet
	facet normal 0 -1 0
		outer loop
			vertex 0.07999999999999995 2.0749999999999997 2.2
			vertex -0.06142135381698609 2.0749999999999997 2.141421353816986
			vertex 0.08 2.0749999999999997 2
		endloop
	endfacet
	facet normal 0.3314135905647248 -0.29623296702039953 0.8957740012074965
		outer loop
			vertex -0.020000000000000004 2.215 2.1039230484541327
			vertex 0.18 1.9149999999999996 1.930717967697245
			vertex -0.007752551495690263 2.2240526565613052 2.1023855227281785
		endloop
	endfacet
	facet normal 0.3314135905647248 -0.29623296702039953 0.8957740012074965
		outer loop
			vertex 0.18 1.9149999999999996 1.930717967697245
			vertex 0.19224744850430975 1.9240526565613052 1.9291804419712906
			vertex -0.007752551495690263 2.2240526565613052 2.1023855227281785
		endloop
	endfacet
	facet normal 0.8001031383446743 0.20870984344669286 0.5623834717161059
		outer loop
			vertex -0.007752551495690263 2.2240526565613052 2.1023855227281785
			vertex 0.19224744850430975 1.9240526565613052 1.9291804419712906
			vertex -0.002679491924311231 2.233660254037844 2.0916025403784437
		endloop
	endfacet
	facet normal 0.8001031383446743 0.20870984344669286 0.5623834717161059
		outer loop
			vertex 0.19224744850430975 1.9240526565613052 1.9291804419712906
			vertex 0.1973205080756888 1.933660254037844 1.918397459621556
			vertex -0.002679491924311231 2.233660254037844 2.0916025403784437
		endloop
	endfacet
	facet normal 0.8001031383446744 0.5913932948979814 -0.10044370941334371
		outer loop
			vertex -0.002679491924311231 2.233660254037844 2.0916025403784437
			vertex 0.1973205080756888 1.933660254037844 1.918397459621556
			vertex -0.007752551495690263 2.238194791943004 2.077890625719559
		endloop
	endfacet
	facet normal 0.8001031383446744 0.5913932948979814 -0.10044370941334371
		outer loop
			vertex 0.1973205080756888 1.933660254037844 1.918397459621556
			vertex 0.19224744850430975 1.9381947919430038 1.904685544962671
			vertex -0.007752551495690263 2.238194791943004 2.077890625719559
		endloop
	endfacet
	facet normal 0.3314135905647249 0.6276465575851244 -0.7044322754818522
		outer loop
			vertex -0.007752551495690263 2.238194791943004 2.077890625719559
			vertex 0.19224744850430975 1.9381947919430038 1.904685544962671
			vertex -0.020000000000000004 2.235 2.069282032302755
		endloop
	endfacet
	facet normal 0.3314135905647249 0.6276465575851244 -0.7044322754818522
		outer loop
			vertex 0.19224744850430975 1.9381947919430038 1.904685544962671
			vertex 0.18 1.9349999999999996 1.8960769515458673
			vertex -0.020000000000000004 2.235 2.069282032302755
		endloop
	endfacet
	facet normal -0.3314135905647248 0.29623296702039964 -0.8957740012074965
		outer loop
			vertex -0.020000000000000004 2.235 2.069282032302755
			vertex 0.18 1.9349999999999996 1.8960769515458673
			vertex -0.032247448504309745 2.225947343438694 2.0708195580287097
		endloop
	endfacet
	facet normal -0.3314135905647248 0.29623296702039964 -0.8957740012074965
		outer loop
			vertex 0.18 1.9349999999999996 1.8960769515458673
			vertex 0.16775255149569027 1.9259473434386942 1.8976144772718218
			vertex -0.032247448504309745 2.225947343438694 2.0708195580287097
		endloop
	endfacet
	facet normal -0.8001031383446743 -0.20870984344669283 -0.5623834717161059
		outer loop
			vertex -0.032247448504309745 2.225947343438694 2.0708195580287097
			vertex 0.16775255149569027 1.9259473434386942 1.8976144772718218
			vertex -0.03732050807568878 2.216339745962155 2.081602540378444
		endloop
	endfacet
	facet normal -0.8001031383446743 -0.20870984344669283 -0.5623834717161059
		outer loop
			vertex 0.16775255149569027 1.9259473434386942 1.8976144772718218
			vertex 0.16267949192431125 1.9163397459621554 1.908397459621556
			vertex -0.03732050807568878 2.216339745962155 2.081602540378444
		endloop
	endfacet
	facet normal -0.8001031383446744 -0.5913932948979813 0.10044370941334371
		outer loop
			vertex -0.03732050807568878 2.216339745962155 2.081602540378444
			vertex 0.16267949192431125 1.9163397459621554 1.908397459621556
			vertex -0.032247448504309745 2.2118052080569957 2.095314455037329
		endloop
	endfacet
	facet normal -0.8001031383446744 -0.5913932948979813 0.10044370941334371
		outer loop
			vertex 0.16267949192431125 1.9163397459621554 1.908397459621556
			vertex 0.16775255149569027 1.9118052080569956 1.9221093742804412
			vertex -0.032247448504309745 2.2118052080569957 2.095314455037329
		endloop
	endfacet
	facet normal -0.3314135905647249 -0.6276465575851244 0.7044322754818522
		outer loop
			vertex -0.032247448504309745 2.2118052080569957 2.095314455037329
			vertex 0.16775255149569027 1.9118052080569956 1.9221093742804412
			vertex -0.020000000000000004 2.215 2.1039230484541327
		endloop
	endfacet
	facet normal -0.3314135905647249 -0.6276465575851244 0.7044322754818522
		outer loop
			vertex 0.16775255149569027 1.9118052080569956 1.9221093742804412
			vertex 0.18 1.9149999999999996 1.930717967697245
			vertex -0.020000000000000004 2.215 2.1039230484541327
		endloop
	endfacet
	facet normal -0.49999999999999994 0.75 0.4330127018922194
		outer loop
			vertex -0.020000000000000004 2.215 2.1039230484541327
			vertex -0.007752551495690263 2.2240526565613052 2.1023855227281785
			vertex -0.020000000000000004 2.2249999999999996 2.086602540378444
		endloop
	endfacet
	facet normal -0.49999999999999994 0.75 0.4330127018922194
		outer loop
			vertex -0.007752551495690263 2.2240526565613052 2.1023855227281785
			vertex -0.002679491924311231 2.233660254037844 2.0916025403784437
			vertex -0.020000000000000004 2.2249999999999996 2.086602540378444
		endloop
	endfacet
	facet normal -0.49999999999999994 0.75 0.4330127018922194
		outer loop
			vertex -0.002679491924311231 2.233660254037844 2.0916025403784437
			vertex -0.007752551495690263 2.238194791943004 2.077890625719559
			vertex -0.020000000000000004 2.2249999999999996 2.086602540378444
		endloop
	endfacet
	facet normal -0.49999999999999994 0.75 0.4330127018922194
		outer loop
			vertex -0.007752551495690263 2.238194791943004 2.077890625719559
			vertex -0.020000000000000004 2.235 2.069282032302755
			vertex -0.020000000000000004 2.2249999999999996 2.086602540378444
		endloop
	endfacet
	facet normal -0.49999999999999994 0.75 0.4330127018922194
		outer loop
			vertex -0.020000000000000004 2.235 2.069282032302755
			vertex -0.032247448504309745 2.225947343438694 2.0708195580287097
			vertex -0.020000000000000004 2.2249999999999996 2.086602540378444
		endloop
	endfacet
	facet normal -0.49999999999999994 0.75 0.4330127018922194
		outer loop
			vertex -0.032247448504309745 2.225947343438694 2.0708195580287097
			vertex -0.03732050807568878 2.216339745962155 2.081602540378444
			vertex -0.020000000000000004 2.2249999999999996 2.086602540378444
		endloop
	endfacet
	facet normal -0.49999999999999994 0.75 0.4330127018922194
		outer loop
			vertex -0.03732050807568878 2.216339745962155 2.081602540378444
			vertex -0.032247448504309745 2.2118052080569957 2.095314455037329
			vertex -0.020000000000000004 2.2249999999999996 2.086602540378444
		endloop
	endfacet
	facet normal -0.49999999999999994 0.75 0.4330127018922194
		outer loop
			vertex -0.032247448504309745 2.2118052080569957 2.095314455037329
			vertex -0.020000000000000004 2.215 2.1039230484541327
			vertex -0.020000000000000004 2.2249999999999996 2.086602540378444
		endloop
	endfacet
	facet normal 0.49999999999999994 -0.75 -0.4330127018922194
		outer loop
			vertex 0.19224744850430975 1.9240526565613052 1.9291804419712906
			vertex 0.18 1.9149999999999996 1.930717967697245
			vertex 0.18 1.9249999999999998 1.9133974596215562
		endloop
	endfacet
	facet normal 0.49999999999999994 -0.75 -0.4330127018922194
		outer loop
			vertex 0.1973205080756888 1.933660254037844 1.918397459621556
			vertex 0.19224744850430975 1.9240526565613052 1.9291804419712906
			vertex 0.18 1.9249999999999998 1.9133974596215562
		endloop
	endfacet
	facet normal 0.49999999999999994 -0.75 -0.4330127018922194
		outer loop
			vertex 0.19224744850430975 1.9381947919430038 1.904685544962671
			vertex 0.1973205080756888 1.933660254037844 1.918397459621556
			vertex 0.18 1.9249999999999998 1.9133974596215562
		endloop
	endfacet
	facet normal 0.49999999999999994 -0.75 -0.4330127018922194
		outer loop
			vertex 0.18 1.9349999999999996 1.8960769515458673
			vertex 0.19224744850430975 1.9381947919430038 1.904685544962671
			vertex 0.18 1.9249999999999998 1.9133974596215562
		endloop
	endfacet
	facet normal 0.49999999999999994 -0.75 -0.4330127018922194
		outer loop
			vertex 0.16775255149569027 1.9259473434386942 1.8976144772718218
			vertex 0.18 1.9349999999999996 1.8960769515458673
			vertex 0.18 1.9249999999999998 1.9133974596215562
		endloop
	endfacet
	facet normal 0.49999999999999994 -0.75 -0.4330127018922194
		outer loop
			vertex 0.16267949192431125 1.9163397459621554 1.908397459621556
			vertex 0.16775255149569027 1.9259473434386942 1.8976144772718218
			vertex 0.18 1.9249999999999998 1.9133974596215562
		endloop
	endfacet
	facet normal 0.49999999999999994 -0.75 -0.4330127018922194
		outer loop
			vertex 0.16775255149569027 1.9118052080569956 1.9221093742804412
			vertex 0.16267949192431125 1.9163397459621554 1.908397459621556
			vertex 0.18 1.9249999999999998 1.9133974596215562
		endloop
	endfacet
	facet normal 0.49999999999999994 -0.75 -0.4330127018922194
		outer loop
			vertex 0.18 1.9149999999999996 1.930717967697245
			vertex 0.16775255149569027 1.9118052080569956 1.9221093742804412
			vertex 0.18 1.9249999999999998 1.9133974596215562
		endloop
	endfacet
	facet normal 0.33141359056472486 -0.6276465575851244 0.704432275481852
		outer loop
			vertex 0.18 2.215 2.1039230484541327
			vertex -0.020000000000000004 1.9149999999999996 1.930717967697245
			vertex 0.19224744850430975 2.2118052080569957 2.095314455037329
		endloop
	endfacet
	facet normal 0.33141359056472486 -0.6276465575851244 0.704432275481852
		outer loop
			vertex -0.020000000000000004 1.9149999999999996 1.930717967697245
			vertex -0.007752551495690263 1.9118052080569956 1.9221093742804412
			vertex 0.19224744850430975 2.2118052080569957 2.095314455037329
		endloop
	endfacet
	facet normal 0.8001031383446743 -0.5913932948979814 0.1004437094133438
		outer loop
			vertex 0.19224744850430975 2.2118052080569957 2.095314455037329
			vertex -0.007752551495690263 1.9118052080569956 1.9221093742804412
			vertex 0.1973205080756888 2.216339745962155 2.081602540378444
		endloop
	endfacet
	facet normal 0.8001031383446743 -0.5913932948979814 0.1004437094133438
		outer loop
			vertex -0.007752551495690263 1.9118052080569956 1.9221093742804412
			vertex -0.002679491924311231 1.9163397459621554 1.908397459621556
			vertex 0.1973205080756888 2.216339745962155 2.081602540378444
		endloop
	endfacet
	facet normal 0.8001031383446743 -0.20870984344669286 -0.5623834717161058
		outer loop
			vertex 0.1973205080756888 2.216339745962155 2.081602540378444
			vertex -0.002679491924311231 1.9163397459621554 1.908397459621556
			vertex 0.19224744850430975 2.225947343438694 2.0708195580287097
		endloop
	endfacet
	facet normal 0.8001031383446743 -0.20870984344669286 -0.5623834717161058
		outer loop
			vertex -0.002679491924311231 1.9163397459621554 1.908397459621556
			vertex -0.007752551495690263 1.9259473434386942 1.8976144772718218
			vertex 0.19224744850430975 2.225947343438694 2.0708195580287097
		endloop
	endfacet
	facet normal 0.3314135905647248 0.29623296702039964 -0.8957740012074965
		outer loop
			vertex 0.19224744850430975 2.225947343438694 2.0708195580287097
			vertex -0.007752551495690263 1.9259473434386942 1.8976144772718218
			vertex 0.18 2.235 2.069282032302755
		endloop
	endfacet
	facet normal 0.3314135905647248 0.29623296702039964 -0.8957740012074965
		outer loop
			vertex -0.007752551495690263 1.9259473434386942 1.8976144772718218
			vertex -0.020000000000000004 1.9349999999999996 1.8960769515458673
			vertex 0.18 2.235 2.069282032302755
		endloop
	endfacet
	facet normal -0.3314135905647248 0.6276465575851244 -0.704432275481852
		outer loop
			vertex 0.18 2.235 2.069282032302755
			vertex -0.020000000000000004 1.9349999999999996 1.8960769515458673
			vertex 0.16775255149569027 2.238194791943004 2.077890625719559
		endloop
	endfacet
	facet normal -0.3314135905647248 0.6276465575851244 -0.704432275481852
		outer loop
			vertex -0.020000000000000004 1.9349999999999996 1.8960769515458673
			vertex -0.032247448504309745 1.9381947919430038 1.904685544962671
			vertex 0.16775255149569027 2.238194791943004 2.077890625719559
		endloop
	endfacet
	facet normal -0.8001031383446743 0.5913932948979814 -0.1004437094133438
		outer loop
			vertex 0.16775255149569027 2.238194791943004 2.077890625719559
			vertex -0.032247448504309745 1.9381947919430038 1.904685544962671
			vertex 0.16267949192431125 2.233660254037844 2.0916025403784437
		endloop
	endfacet
	facet normal -0.8001031383446743 0.5913932948979814 -0.1004437094133438
		outer loop
			vertex -0.032247448504309745 1.9381947919430038 1.904685544962671
			vertex -0.03732050807568878 1.933660254037844 1.918397459621556
			vertex 0.16267949192431125 2.233660254037844 2.0916025403784437
		endloop
	endfacet
	facet normal -0.8001031383446743 0.20870984344669288 0.5623834717161058
		outer loop
			vertex 0.16267949192431125 2.233660254037844 2.0916025403784437
			vertex -0.03732050807568878 1.933660254037844 1.918397459621556
			vertex 0.16775255149569027 2.2240526565613052 2.1023855227281785
		endloop
	endfacet
	facet normal -0.8001031383446743 0.20870984344669288 0.5623834717161058
		outer loop
			vertex -0.03732050807568878 1.933660254037844 1.918397459621556
			vertex -0.032247448504309745 1.9240526565613052 1.9291804419712906
			vertex 0.16775255149569027 2.2240526565613052 2.1023855227281785
		endloop
	endfacet
	facet normal -0.3314135905647248 -0.29623296702039964 0.8957740012074965
		outer loop
			vertex 0.16775255149569027 2.2240526565613052 2.1023855227281785
			vertex -0.032247448504309745 1.9240526565613052 1.9291804419712906
			vertex 0.18 2.215 2.1039230484541327
		endloop
	endfacet
	facet normal -0.3314135905647248 -0.29623296702039964 0.8957740012074965
		outer loop
			vertex -0.032247448504309745 1.9240526565613052 1.9291804419712906
			vertex -0.020000000000000004 1.9149999999999996 1.930717967697245
			vertex 0.18 2.215 2.1039230484541327
		endloop
	endfacet
	facet normal 0.49999999999999994 0.75 0.4330127018922194
		outer loop
			vertex 0.18 2.215 2.1039230484541327
			vertex 0.19224744850430975 2.2118052080569957 2.095314455037329
			vertex 0.18 2.2249999999999996 2.086602540378444
		endloop
	endfacet
	facet normal 0.49999999999999994 0.75 0.4330127018922194
		outer loop
			vertex 0.19224744850430975 2.2118052080569957 2.095314455037329
			vertex 0.1973205080756888 2.216339745962155 2.081602540378444
			vertex 0.18 2.2249999999999996 2.086602540378444
		endloop
	endfacet
	facet normal 0.49999999999999994 0.75 0.4330127018922194
		outer loop
			vertex 0.1973205080756888 2.216339745962155 2.081602540378444
			vertex 0.19224744850430975 2.225947343438694 2.0708195580287097
			vertex 0.18 2.2249999999999996 2.086602540378444
		endloop
	endfacet
	facet normal 0.49999999999999994 0.75 0.4330127018922194
		outer loop
			vertex 0.19224744850430975 2.225947343438694 2.0708195580287097
			vertex 0.18 2.235 2.069282032302755
			vertex 0.18 2.2249999999999996 2.086602540378444
		endloop
	endfacet
	facet normal 0.49999999999999994 0.75 0.4330127018922194
		outer loop
			vertex 0.18 2.235 2.069282032302755
			vertex 0.16775255149569027 2.238194791943004 2.077890625719559
			vertex 0.18 2.2249999999999996 2.086602540378444
		endloop
	endfacet
	facet normal 0.49999999999999994 0.75 0.4330127018922194
		outer loop
			vertex 0.16775255149569027 2.238194791943004 2.077890625719559
			vertex 0.16267949192431125 2.233660254037844 2.0916025403784437
			vertex 0.18 2.2249999999999996 2.086602540378444
		endloop
	endfacet
	facet normal 0.49999999999999994 0.75 0.4330127018922194
		outer loop
			vertex 0.16267949192431125 2.233660254037844 2.0916025403784437
			vertex 0.16775255149569027 2.2240526565613052 2.1023855227281785
			vertex 0.18 2.2249999999999996 2.086602540378444
		endloop
	endfacet
	facet normal 0.49999999999999994 0.75 0.4330127018922194
		outer loop
			vertex 0.16775255149569027 2.2240526565613052 2.1023855227281785
			vertex 0.18 2.215 2.1039230484541327
			vertex 0.18 2.2249999999999996 2.086602540378444
		endloop
	endfacet
	facet normal -0.49999999999999994 -0.75 -0.4330127018922194
		outer loop
			vertex -0.007752551495690263 1.9118052080569956 1.9221093742804412
			vertex -0.020000000000000004 1.9149999999999996 1.930717967697245
			vertex -0.020000000000000004 1.9249999999999998 1.9133974596215562
		endloop
	endfacet
	facet normal -0.49999999999999994 -0.75 -0.4330127018922194
		outer loop
			vertex -0.002679491924311231 1.9163397459621554 1.908397459621556
			vertex -0.007752551495690263 1.9118052080569956 1.9221093742804412
			vertex -0.020000000000000004 1.9249999999999998 1.9133974596215562
		endloop
	endfacet
	facet normal -0.49999999999999994 -0.75 -0.4330127018922194
		outer loop
			vertex -0.007752551495690263 1.9259473434386942 1.8976144772718218
			vertex -0.002679491924311231 1.9163397459621554 1.908397459621556
			vertex -0.020000000000000004 1.9249999999999998 1.9133974596215562
		endloop
	endfacet
	facet normal -0.49999999999999994 -0.75 -0.4330127018922194
		outer loop
			vertex -0.020000000000000004 1.9349999999999996 1.8960769515458673
			vertex -0.007752551495690263 1.9259473434386942 1.8976144772718218
			vertex -0.020000000000000004 1.9249999999999998 1.9133974596215562
		endloop
	endfacet
	facet normal -0.49999999999999994 -0.75 -0.4330127018922194
		outer loop
			vertex -0.032247448504309745 1.9381947919430038 1.904685544962671
			vertex -0.020000000000000004 1.9349999999999996 1.8960769515458673
			vertex -0.020000000000000004 1.9249999999999998 1.9133974596215562
		endloop
	endfacet
	facet normal -0.49999999999999994 -0.75 -0.4330127018922194
		outer loop
			vertex -0.03732050807568878 1.933660254037844 1.918397459621556
			vertex -0.032247448504309745 1.9381947919430038 1.904685544962671
			vertex -0.020000000000000004 1.9249999999999998 1.9133974596215562
		endloop
	endfacet
	facet normal -0.49999999999999994 -0.75 -0.4330127018922194
		outer loop
			vertex -0.032247448504309745 1.9240526565613052 1.9291804419712906
			vertex -0.03732050807568878 1.933660254037844 1.918397459621556
			vertex -0.020000000000000004 1.9249999999999998 1.9133974596215562
		endloop
	endfacet
	facet normal -0.49999999999999994 -0.75 -0.4330127018922194
		outer loop
			vertex -0.020000000000000004 1.9149999999999996 1.930717967697245
			vertex -0.032247448504309745 1.9240526565613052 1.9291804419712906
			vertex -0.020000000000000004 1.9249999999999998 1.9133974596215562
		endloop
	endfacet
	facet normal 0.33141359056472486 0.29623296702039953 0.8957740012074965
		outer loop
			vertex 0.18 2.235 1.930717967697245
			vertex -0.020000000000000004 1.9349999999999996 2.1039230484541327
			vertex 0.19224744850430975 2.225947343438694 1.9291804419712906
		endloop
	endfacet
	facet normal 0.33141359056472486 0.29623296702039953 0.8957740012074965
		outer loop
			vertex -0.020000000000000004 1.9349999999999996 2.1039230484541327
			vertex -0.007752551495690277 1.9259473434386942 2.1023855227281785
			vertex 0.19224744850430975 2.225947343438694 1.9291804419712906
		endloop
	endfacet
	facet normal 0.8001031383446743 -0.20870984344669286 0.5623834717161059
		outer loop
			vertex 0.19224744850430975 2.225947343438694 1.9291804419712906
			vertex -0.007752551495690277 1.9259473434386942 2.1023855227281785
			vertex 0.1973205080756888 2.216339745962155 1.918397459621556
		endloop
	endfacet
	facet normal 0.8001031383446743 -0.20870984344669286 0.5623834717161059
		outer loop
			vertex -0.007752551495690277 1.9259473434386942 2.1023855227281785
			vertex -0.002679491924311231 1.9163397459621554 2.0916025403784437
			vertex 0.1973205080756888 2.216339745962155 1.918397459621556
		endloop
	endfacet
	facet normal 0.8001031383446744 -0.5913932948979814 -0.10044370941334371
		outer loop
			vertex 0.1973205080756888 2.216339745962155 1.918397459621556
			vertex -0.002679491924311231 1.9163397459621554 2.0916025403784437
			vertex 0.19224744850430975 2.2118052080569957 1.904685544962671
		endloop
	endfacet
	facet normal 0.8001031383446744 -0.5913932948979814 -0.10044370941334371
		outer loop
			vertex -0.002679491924311231 1.9163397459621554 2.0916025403784437
			vertex -0.007752551495690277 1.9118052080569956 2.077890625719559
			vertex 0.19224744850430975 2.2118052080569957 1.904685544962671
		endloop
	endfacet
	facet normal 0.33141359056472486 -0.6276465575851244 -0.7044322754818522
		outer loop
			vertex 0.19224744850430975 2.2118052080569957 1.904685544962671
			vertex -0.007752551495690277 1.9118052080569956 2.077890625719559
			vertex 0.18 2.215 1.8960769515458673
		endloop
	endfacet
	facet normal 0.33141359056472486 -0.6276465575851244 -0.7044322754818522
		outer loop
			vertex -0.007752551495690277 1.9118052080569956 2.077890625719559
			vertex -0.020000000000000004 1.9149999999999996 2.069282032302755
			vertex 0.18 2.215 1.8960769515458673
		endloop
	endfacet
	facet normal -0.33141359056472486 -0.29623296702039964 -0.8957740012074965
		outer loop
			vertex 0.18 2.215 1.8960769515458673
			vertex -0.020000000000000004 1.9149999999999996 2.069282032302755
			vertex 0.1677525514956903 2.2240526565613052 1.8976144772718218
		endloop
	endfacet
	facet normal -0.33141359056472486 -0.29623296702039964 -0.8957740012074965
		outer loop
			vertex -0.020000000000000004 1.9149999999999996 2.069282032302755
			vertex -0.03224744850430973 1.9240526565613052 2.0708195580287097
			vertex 0.1677525514956903 2.2240526565613052 1.8976144772718218
		endloop
	endfacet
	facet normal -0.8001031383446743 0.20870984344669283 -0.5623834717161059
		outer loop
			vertex 0.1677525514956903 2.2240526565613052 1.8976144772718218
			vertex -0.03224744850430973 1.9240526565613052 2.0708195580287097
			vertex 0.16267949192431125 2.233660254037844 1.908397459621556
		endloop
	endfacet
	facet normal -0.8001031383446743 0.20870984344669283 -0.5623834717161059
		outer loop
			vertex -0.03224744850430973 1.9240526565613052 2.0708195580287097
			vertex -0.03732050807568878 1.933660254037844 2.081602540378444
			vertex 0.16267949192431125 2.233660254037844 1.908397459621556
		endloop
	endfacet
	facet normal -0.8001031383446744 0.5913932948979813 0.10044370941334371
		outer loop
			vertex 0.16267949192431125 2.233660254037844 1.908397459621556
			vertex -0.03732050807568878 1.933660254037844 2.081602540378444
			vertex 0.1677525514956903 2.238194791943004 1.9221093742804412
		endloop
	endfacet
	facet normal -0.8001031383446744 0.5913932948979813 0.10044370941334371
		outer loop
			vertex -0.03732050807568878 1.933660254037844 2.081602540378444
			vertex -0.03224744850430973 1.9381947919430038 2.095314455037329
			vertex 0.1677525514956903 2.238194791943004 1.9221093742804412
		endloop
	endfacet
	facet normal -0.33141359056472486 0.6276465575851244 0.7044322754818522
		outer loop
			vertex 0.1677525514956903 2.238194791943004 1.9221093742804412
			vertex -0.03224744850430973 1.9381947919430038 2.095314455037329
			vertex 0.18 2.235 1.930717967697245
		endloop
	endfacet
	facet normal -0.33141359056472486 0.6276465575851244 0.7044322754818522
		outer loop
			vertex -0.03224744850430973 1.9381947919430038 2.095314455037329
			vertex -0.020000000000000004 1.9349999999999996 2.1039230484541327
			vertex 0.18 2.235 1.930717967697245
		endloop
	endfacet
	facet normal 0.5000000000000001 0.7500000000000001 -0.4330127018922193
		outer loop
			vertex 0.18 2.235 1.930717967697245
			vertex 0.19224744850430975 2.225947343438694 1.9291804419712906
			vertex 0.18 2.2249999999999996 1.9133974596215562
		endloop
	endfacet
	facet normal 0.5000000000000001 0.7500000000000001 -0.4330127018922193
		outer loop
			vertex 0.19224744850430975 2.225947343438694 1.9291804419712906
			vertex 0.1973205080756888 2.216339745962155 1.918397459621556
			vertex 0.18 2.2249999999999996 1.9133974596215562
		endloop
	endfacet
	facet normal 0.5000000000000001 0.7500000000000001 -0.4330127018922193
		outer loop
			vertex 0.1973205080756888 2.216339745962155 1.918397459621556
			vertex 0.19224744850430975 2.2118052080569957 1.904685544962671
			vertex 0.18 2.2249999999999996 1.9133974596215562
		endloop
	endfacet
	facet normal 0.5000000000000001 0.7500000000000001 -0.4330127018922193
		outer loop
			vertex 0.19224744850430975 2.2118052080569957 1.904685544962671
			vertex 0.18 2.215 1.8960769515458673
			vertex 0.18 2.2249999999999996 1.9133974596215562
		endloop
	endfacet
	facet normal 0.5000000000000001 0.7500000000000001 -0.4330127018922193
		outer loop
			vertex 0.18 2.215 1.8960769515458673
			vertex 0.1677525514956903 2.2240526565613052 1.8976144772718218
			vertex 0.18 2.2249999999999996 1.9133974596215562
		endloop
	endfacet
	facet normal 0.5000000000000001 0.7500000000000001 -0.4330127018922193
		outer loop
			vertex 0.1677525514956903 2.2240526565613052 1.8976144772718218
			vertex 0.16267949192431125 2.233660254037844 1.908397459621556
			vertex 0.18 2.2249999999999996 1.9133974596215562
		endloop
	endfacet
	facet normal 0.5000000000000001 0.7500000000000001 -0.4330127018922193
		outer loop
			vertex 0.16267949192431125 2.233660254037844 1.908397459621556
			vertex 0.1677525514956903 2.238194791943004 1.9221093742804412
			vertex 0.18 2.2249999999999996 1.9133974596215562
		endloop
	endfacet
	facet normal 0.5000000000000001 0.7500000000000001 -0.4330127018922193
		outer loop
			vertex 0.1677525514956903 2.238194791943004 1.9221093742804412
			vertex 0.18 2.235 1.930717967697245
			vertex 0.18 2.2249999999999996 1.9133974596215562
		endloop
	endfacet
	facet normal -0.5000000000000001 -0.7500000000000001 0.4330127018922193
		outer loop
			vertex -0.007752551495690277 1.9259473434386942 2.1023855227281785
			vertex -0.020000000000000004 1.9349999999999996 2.1039230484541327
			vertex -0.020000000000000004 1.9249999999999998 2.086602540378444
		endloop
	endfacet
	facet normal -0.5000000000000001 -0.7500000000000001 0.4330127018922193
		outer loop
			vertex -0.002679491924311231 1.9163397459621554 2.0916025403784437
			vertex -0.007752551495690277 1.9259473434386942 2.1023855227281785
			vertex -0.020000000000000004 1.9249999999999998 2.086602540378444
		endloop
	endfacet
	facet normal -0.5000000000000001 -0.7500000000000001 0.4330127018922193
		outer loop
			vertex -0.007752551495690277 1.9118052080569956 2.077890625719559
			vertex -0.002679491924311231 1.9163397459621554 2.0916025403784437
			vertex -0.020000000000000004 1.9249999999999998 2.086602540378444
		endloop
	endfacet
	facet normal -0.5000000000000001 -0.7500000000000001 0.4330127018922193
		outer loop
			vertex -0.020000000000000004 1.9149999999999996 2.069282032302755
			vertex -0.007752551495690277 1.9118052080569956 2.077890625719559
			vertex -0.020000000000000004 1.9249999999999998 2.086602540378444
		endloop
	endfacet
	facet normal -0.5000000000000001 -0.7500000000000001 0.4330127018922193
		outer loop
			vertex -0.03224744850430973 1.9240526565613052 2.0708195580287097
			vertex -0.020000000000000004 1.9149999999999996 2.069282032302755
			vertex -0.020000000000000004 1.9249999999999998 2.086602540378444
		endloop
	endfacet
	facet normal -0.5000000000000001 -0.7500000000000001 0.4330127018922193
		outer loop
			vertex -0.03732050807568878 1.933660254037844 2.081602540378444
			vertex -0.03224744850430973 1.9240526565613052 2.0708195580287097
			vertex -0.020000000000000004 1.9249999999999998 2.086602540378444
		endloop
	endfacet
	facet normal -0.5000000000000001 -0.7500000000000001 0.4330127018922193
		outer loop
			vertex -0.03224744850430973 1.9381947919430038 2.095314455037329
			vertex -0.03732050807568878 1.933660254037844 2.081602540378444
			vertex -0.020000000000000004 1.9249999999999998 2.086602540378444
		endloop
	endfacet
	facet normal -0.5000000000000001 -0.7500000000000001 0.4330127018922193
		outer loop
			vertex -0.020000000000000004 1.9349999999999996 2.1039230484541327
			vertex -0.03224744850430973 1.9381947919430038 2.095314455037329
			vertex -0.020000000000000004 1.9249999999999998 2.086602540378444
		endloop
	endfacet
	facet normal 0.33141359056472486 0.6276465575851244 0.7044322754818522
		outer loop
			vertex -0.020000000000000004 2.235 1.930717967697245
			vertex 0.18 1.9349999999999996 2.1039230484541327
			vertex -0.007752551495690263 2.238194791943004 1.9221093742804412
		endloop
	endfacet
	facet normal 0.33141359056472486 0.6276465575851244 0.7044322754818522
		outer loop
			vertex 0.18 1.9349999999999996 2.1039230484541327
			vertex 0.19224744850430975 1.9381947919430038 2.095314455037329
			vertex -0.007752551495690263 2.238194791943004 1.9221093742804412
		endloop
	endfacet
	facet normal 0.8001031383446743 0.5913932948979814 0.10044370941334384
		outer loop
			vertex -0.007752551495690263 2.238194791943004 1.9221093742804412
			vertex 0.19224744850430975 1.9381947919430038 2.095314455037329
			vertex -0.002679491924311231 2.233660254037844 1.908397459621556
		endloop
	endfacet
	facet normal 0.8001031383446743 0.5913932948979814 0.10044370941334384
		outer loop
			vertex 0.19224744850430975 1.9381947919430038 2.095314455037329
			vertex 0.1973205080756888 1.933660254037844 2.081602540378444
			vertex -0.002679491924311231 2.233660254037844 1.908397459621556
		endloop
	endfacet
	facet normal 0.8001031383446743 0.20870984344669294 -0.5623834717161058
		outer loop
			vertex -0.002679491924311231 2.233660254037844 1.908397459621556
			vertex 0.1973205080756888 1.933660254037844 2.081602540378444
			vertex -0.007752551495690263 2.2240526565613052 1.8976144772718218
		endloop
	endfacet
	facet normal 0.8001031383446743 0.20870984344669294 -0.5623834717161058
		outer loop
			vertex 0.1973205080756888 1.933660254037844 2.081602540378444
			vertex 0.19224744850430975 1.9240526565613052 2.0708195580287097
			vertex -0.007752551495690263 2.2240526565613052 1.8976144772718218
		endloop
	endfacet
	facet normal 0.33141359056472486 -0.2962329670203995 -0.8957740012074965
		outer loop
			vertex -0.007752551495690263 2.2240526565613052 1.8976144772718218
			vertex 0.19224744850430975 1.9240526565613052 2.0708195580287097
			vertex -0.020000000000000004 2.215 1.8960769515458673
		endloop
	endfacet
	facet normal 0.33141359056472486 -0.2962329670203995 -0.8957740012074965
		outer loop
			vertex 0.19224744850430975 1.9240526565613052 2.0708195580287097
			vertex 0.18 1.9149999999999996 2.069282032302755
			vertex -0.020000000000000004 2.215 1.8960769515458673
		endloop
	endfacet
	facet normal -0.3314135905647248 -0.6276465575851244 -0.7044322754818523
		outer loop
			vertex -0.020000000000000004 2.215 1.8960769515458673
			vertex 0.18 1.9149999999999996 2.069282032302755
			vertex -0.032247448504309745 2.2118052080569957 1.9046855449626712
		endloop
	endfacet
	facet normal -0.3314135905647248 -0.6276465575851244 -0.7044322754818523
		outer loop
			vertex 0.18 1.9149999999999996 2.069282032302755
			vertex 0.16775255149569027 1.9118052080569956 2.077890625719559
			vertex -0.032247448504309745 2.2118052080569957 1.9046855449626712
		endloop
	endfacet
	facet normal -0.8001031383446743 -0.5913932948979814 -0.10044370941334384
		outer loop
			vertex -0.032247448504309745 2.2118052080569957 1.9046855449626712
			vertex 0.16775255149569027 1.9118052080569956 2.077890625719559
			vertex -0.03732050807568878 2.216339745962155 1.918397459621556
		endloop
	endfacet
	facet normal -0.8001031383446743 -0.5913932948979814 -0.10044370941334384
		outer loop
			vertex 0.16775255149569027 1.9118052080569956 2.077890625719559
			vertex 0.16267949192431125 1.9163397459621554 2.0916025403784437
			vertex -0.03732050807568878 2.216339745962155 1.918397459621556
		endloop
	endfacet
	facet normal -0.8001031383446743 -0.20870984344669297 0.5623834717161058
		outer loop
			vertex -0.03732050807568878 2.216339745962155 1.918397459621556
			vertex 0.16267949192431125 1.9163397459621554 2.0916025403784437
			vertex -0.032247448504309745 2.225947343438694 1.9291804419712906
		endloop
	endfacet
	facet normal -0.8001031383446743 -0.20870984344669297 0.5623834717161058
		outer loop
			vertex 0.16267949192431125 1.9163397459621554 2.0916025403784437
			vertex 0.16775255149569027 1.9259473434386942 2.102385522728178
			vertex -0.032247448504309745 2.225947343438694 1.9291804419712906
		endloop
	endfacet
	facet normal -0.33141359056472486 0.2962329670203995 0.8957740012074965
		outer loop
			vertex -0.032247448504309745 2.225947343438694 1.9291804419712906
			vertex 0.16775255149569027 1.9259473434386942 2.102385522728178
			vertex -0.020000000000000004 2.235 1.930717967697245
		endloop
	endfacet
	facet normal -0.33141359056472486 0.2962329670203995 0.8957740012074965
		outer loop
			vertex 0.16775255149569027 1.9259473434386942 2.102385522728178
			vertex 0.18 1.9349999999999996 2.1039230484541327
			vertex -0.020000000000000004 2.235 1.930717967697245
		endloop
	endfacet
	facet normal -0.49999999999999994 0.75 -0.4330127018922192
		outer loop
			vertex -0.020000000000000004 2.235 1.930717967697245
			vertex -0.007752551495690263 2.238194791943004 1.9221093742804412
			vertex -0.020000000000000004 2.2249999999999996 1.9133974596215562
		endloop
	endfacet
	facet normal -0.49999999999999994 0.75 -0.4330127018922192
		outer loop
			vertex -0.007752551495690263 2.238194791943004 1.9221093742804412
			vertex -0.002679491924311231 2.233660254037844 1.908397459621556
			vertex -0.020000000000000004 2.2249999999999996 1.9133974596215562
		endloop
	endfacet
	facet normal -0.49999999999999994 0.75 -0.4330127018922192
		outer loop
			vertex -0.002679491924311231 2.233660254037844 1.908397459621556
			vertex -0.007752551495690263 2.2240526565613052 1.8976144772718218
			vertex -0.020000000000000004 2.2249999999999996 1.9133974596215562
		endloop
	endfacet
	facet normal -0.49999999999999994 0.75 -0.4330127018922192
		outer loop
			vertex -0.007752551495690263 2.2240526565613052 1.8976144772718218
			vertex -0.020000000000000004 2.215 1.8960769515458673
			vertex -0.020000000000000004 2.2249999999999996 1.9133974596215562
		endloop
	endfacet
	facet normal -0.49999999999999994 0.75 -0.4330127018922192
		outer loop
			vertex -0.020000000000000004 2.215 1.8960769515458673
			vertex -0.032247448504309745 2.2118052080569957 1.9046855449626712
			vertex -0.020000000000000004 2.2249999999999996 1.9133974596215562
		endloop
	endfacet
	facet normal -0.49999999999999994 0.75 -0.4330127018922192
		outer loop
			vertex -0.032247448504309745 2.2118052080569957 1.9046855449626712
			vertex -0.03732050807568878 2.216339745962155 1.918397459621556
			vertex -0.020000000000000004 2.2249999999999996 1.9133974596215562
		endloop
	endfacet
	facet normal -0.49999999999999994 0.75 -0.4330127018922192
		outer loop
			vertex -0.03732050807568878 2.216339745962155 1.918397459621556
			vertex -0.032247448504309745 2.225947343438694 1.9291804419712906
			vertex -0.020000000000000004 2.2249999999999996 1.9133974596215562
		endloop
	endfacet
	facet normal -0.49999999999999994 0.75 -0.4330127018922192
		outer loop
			vertex -0.032247448504309745 2.225947343438694 1.9291804419712906
			vertex -0.020000000000000004 2.235 1.930717967697245
			vertex -0.020000000000000004 2.2249999999999996 1.9133974596215562
		endloop
	endfacet
	facet normal 0.49999999999999994 -0.75 0.4330127018922192
		outer loop
			vertex 0.19224744850430975 1.9381947919430038 2.095314455037329
			vertex 0.18 1.9349999999999996 2.1039230484541327
			vertex 0.18 1.9249999999999998 2.086602540378444
		endloop
	endfacet
	facet normal 0.49999999999999994 -0.75 0.4330127018922192
		outer loop
			vertex 0.1973205080756888 1.933660254037844 2.081602540378444
			vertex 0.19224744850430975 1.9381947919430038 2.095314455037329
			vertex 0.18 1.9249999999999998 2.086602540378444
		endloop
	endfacet
	facet normal 0.49999999999999994 -0.75 0.4330127018922192
		outer loop
			vertex 0.19224744850430975 1.9240526565613052 2.0708195580287097
			vertex 0.1973205080756888 1.933660254037844 2.081602540378444
			vertex 0.18 1.9249999999999998 2.086602540378444
		endloop
	endfacet
	facet normal 0.49999999999999994 -0.75 0.4330127018922192
		outer loop
			vertex 0.18 1.9149999999999996 2.069282032302755
			vertex 0.19224744850430975 1.9240526565613052 2.0708195580287097
			vertex 0.18 1.9249999999999998 2.086602540378444
		endloop
	endfacet
	facet normal 0.49999999999999994 -0.75 0.4330127018922192
		outer loop
			vertex 0.16775255149569027 1.9118052080569956 2.077890625719559
			vertex 0.18 1.9149999999999996 2.069282032302755
			vertex 0.18 1.9249999999999998 2.086602540378444
		endloop
	endfacet
	facet normal 0.49999999999999994 -0.75 0.4330127018922192
		outer loop
			vertex 0.16267949192431125 1.9163397459621554 2.0916025403784437
			vertex 0.16775255149569027 1.9118052080569956 2.077890625719559
			vertex 0.18 1.9249999999999998 2.086602540378444
		endloop
	endfacet
	facet normal 0.49999999999999994 -0.75 0.4330127018922192
		outer loop
			vertex 0.16775255149569027 1.9259473434386942 2.102385522728178
			vertex 0.16267949192431125 1.9163397459621554 2.0916025403784437
			vertex 0.18 1.9249999999999998 2.086602540378444
		endloop
	endfacet
	facet normal 0.49999999999999994 -0.75 0.4330127018922192
		outer loop
			vertex 0.18 1.9349999999999996 2.1039230484541327
			vertex 0.16775255149569027 1.9259473434386942 2.102385522728178
			vertex 0.18 1.9249999999999998 2.086602540378444
		endloop
	endfacet
	facet normal 1 0 0
		outer loop
			vertex 0.58 1.6 0.5
			vertex 0.58 0 0.5
			vertex 0.58 1.6 -0.5
		endloop
	endfacet
	facet normal 1 0 0
		outer loop
			vertex 0.58 0 0.5
			vertex 0.58 0 -0.5
			vertex 0.58 1.6 -0.5
		endloop
	endfacet
	facet normal -1 0 0
		outer loop
			vertex -0.42 1.6 -0.5
			vertex -0.42 0 -0.5
			vertex -0.42 1.6 0.5
		endloop
	endfacet
	facet normal -1 0 0
		outer loop
			vertex -0.42 0 -0.5
			vertex -0.42 0 0.5
			vertex -0.42 1.6 0.5
		endloop
	endfacet
	facet normal 0 1 0
		outer loop
			vertex -0.42 1.6 -0.5
			vertex -0.42 1.6 0.5
			vertex 0.58 1.6 -0.5
		endloop
	endfacet
	facet normal 0 1 0
		outer loop
			vertex -0.42 1.6 0.5
			vertex 0.58 1.6 0.5
			vertex 0.58 1.6 -0.5
		endloop
	endfacet
	facet normal 0 -1 0
		outer loop
			vertex -0.42 0 0.5
			vertex -0.42 0 -0.5
			vertex 0.58 0 0.5
		endloop
	endfacet
	facet normal 0 -1 0
		outer loop
			vertex -0.42 0 -0.5
			vertex 0.58 0 -0.5
			vertex 0.58 0 0.5
		endloop
	endfacet
	facet normal 0 0 1
		outer loop
			vertex -0.42 1.6 0.5
			vertex -0.42 0 0.5
			vertex 0.58 1.6 0.5
		endloop
	endfacet
	facet normal 0 0 1
		outer loop
			vertex -0.42 0 0.5
			vertex 0.58 0 0.5
			vertex 0.58 1.6 0.5
		endloop
	endfacet
	facet normal 0 0 -1
		outer loop
			vertex 0.58 1.6 -0.5
			vertex 0.58 0 -0.5
			vertex -0.42 1.6 -0.5
		endloop
	endfacet
	facet normal 0 0 -1
		outer loop
			vertex 0.58 0 -0.5
			vertex -0.42 0 -0.5
			vertex -0.42 1.6 -0.5
		endloop
	endfacet
endsolid exported
