{
  "accessors": [
    {
      "bufferView": 2,
      "componentType": 5126,
      "count": 881,
      "max": [
        0.56314700841903687,
        4.1048750877380371,
        0.48215800523757935
      ],
      "min": [
        -0.56314700841903687,
        -4.3691420555114746,
        0.0060499999672174454
      ],
      "type": "VEC3"
    },
    {
      "bufferView": 2,
      "byteOffset": 10572,
      "componentType": 5126,
      "count": 881,
      "max": [
        0.99996310472488403,
        1,
        0.99999576807022095
      ],
      "min": [
        -0.99996310472488403,
        -1,
        -0.99999600648880005
      ],
      "type": "VEC3"
    },
    {
      "bufferView": 3,
      "componentType": 5126,
      "count": 881,
      "max": [
        1,
        0.084574557840824127,
        1,
        1
      ],
      "min": [
        -1,
        -0.99998944997787476,
        -0.99992704391479492,
        -1
      ],
      "type": "VEC4"
    },
    {
      "bufferView": 1,
      "componentType": 5126,
      "count": 881,
      "max": [
        0.625,
        0.5
      ],
      "min": [
        0.375,
        0.25
      ],
      "type": "VEC2"
    },
    {
      "bufferView": 0,
      "componentType": 5125,
      "count": 2748,
      "max": [
        880
      ],
      "min": [
        0
      ],
      "type": "SCALAR"
    }
  ],
  "asset": {
    "extras": {
      "author": "Reweiss (https://sketchfab.com/reweiss)",
      "license": "CC-BY-4.0 (http://creativecommons.org/licenses/by/4.0/)",
      "source": "https://sketchfab.com/3d-models/fork-539fb276dbc74aafaf4faf625de5e79a",
      "title": "Fork"
    },
    "generator": "Sketchfab-6.46.0",
    "version": "2.0"
  },
  "bufferViews": [
    {
      "buffer": 0,
      "byteLength": 10992,
      "byteOffset": 0,
      "name": "floatBufferViews",
      "target": 34963
    },
    {
      "buffer": 0,
      "byteLength": 7048,
      "byteOffset": 10992,
      "byteStride": 8,
      "name": "floatBufferViews",
      "target": 34962
    },
    {
      "buffer": 0,
      "byteLength": 21144,
      "byteOffset": 18040,
      "byteStride": 12,
      "name": "floatBufferViews",
      "target": 34962
    },
    {
      "buffer": 0,
      "byteLength": 14096,
      "byteOffset": 39184,
      "byteStride": 16,
      "name": "floatBufferViews",
      "target": 34962
    }
  ],
  "buffers": [
    {
      "byteLength": 53280,
      "uri": "garfo.bin"
    }
  ],
  "materials": [
    {
      "doubleSided": true,
      "name": "initialShadingGroup",
      "pbrMetallicRoughness": {
        "baseColorFactor": [
          1,
          1,
          1,
          1
        ],
        "metallicFactor": 0,
        "roughnessFactor": 0.59999999999999998
      }
    }
  ],
  "meshes": [
    {
      "primitives": [
        {
          "attributes": {
            "NORMAL": 1,
            "POSITION": 0,
            "TANGENT": 2,
            "TEXCOORD_0": 3
          },
          "indices": 4,
          "material": 0,
          "mode": 4
        }
      ]
    }
  ],
  "nodes": [
    {
      "children": [
        1
      ],
      "name": "RootNode (gltf orientation matrix)",
      "rotation": [
        -0.70710678118654746,
        -0,
        -0,
        0.70710678118654757
      ]
    },
    {
      "children": [
        2
      ],
      "matrix": [
        1,
        0,
        0,
        0,
        0,
        0.99751567840576172,
        0.070444785058498383,
        0,
        0,
        -0.070444785058498383,
        0.99751567840576172,
        0,
        0,
        0.016867596656084061,
        0.0099140433594584465,
        1
      ],
      "name": "RootNode (model correction matrix)"
    },
    {
      "children": [
        3
      ],
      "name": "1d0233b87fd24309bb3d2450f31e6069.obj.cleaner.materialmerger.gles"
    },
    {
      "mesh": 0,
      "name": ""
    }
  ],
  "scene": 0,
  "scenes": [
    {
      "name": "OSG_Scene",
      "nodes": [
        0
      ]
    }
  ]
}

