{
  "accessors": [
    {
      "bufferView": 2,
      "componentType": 5126,
      "count": 472,
      "max": [
        0.11831200122833252,
        0.078017503023147583,
        0.12473300099372864
      ],
      "min": [
        -1,
        -0.078017503023147583,
        -0.12473300099372864
      ],
      "type": "VEC3"
    },
    {
      "bufferView": 2,
      "byteOffset": 5664,
      "componentType": 5126,
      "count": 472,
      "max": [
        0.99999189376831055,
        1,
        0.99999797344207764
      ],
      "min": [
        -0.95465987920761108,
        -1,
        -1
      ],
      "type": "VEC3"
    },
    {
      "bufferView": 3,
      "componentType": 5126,
      "count": 472,
      "max": [
        1,
        1,
        1,
        1
      ],
      "min": [
        -1,
        -1,
        -1,
        -1
      ],
      "type": "VEC4"
    },
    {
      "bufferView": 1,
      "componentType": 5126,
      "count": 472,
      "max": [
        1.0010199546813965,
        0.99034899473190308
      ],
      "min": [
        0.38046100735664368,
        0.0066999201662838459
      ],
      "type": "VEC2"
    },
    {
      "bufferView": 0,
      "componentType": 5125,
      "count": 1824,
      "max": [
        471
      ],
      "min": [
        0
      ],
      "type": "SCALAR"
    },
    {
      "bufferView": 2,
      "byteOffset": 11328,
      "componentType": 5126,
      "count": 300,
      "max": [
        1,
        0.0079315099865198135,
        0.11936400085687637
      ],
      "min": [
        -1,
        -0.0072210398502647877,
        -0.1193619966506958
      ],
      "type": "VEC3"
    },
    {
      "bufferView": 2,
      "byteOffset": 14928,
      "componentType": 5126,
      "count": 300,
      "max": [
        0.9999958872795105,
        1,
        0.9999920129776001
      ],
      "min": [
        -0.99967688322067261,
        -1,
        -1
      ],
      "type": "VEC3"
    },
    {
      "bufferView": 3,
      "byteOffset": 7552,
      "componentType": 5126,
      "count": 300,
      "max": [
        0.011912000365555286,
        1,
        1,
        1
      ],
      "min": [
        -0.011912000365555286,
        -1,
        -1,
        -1
      ],
      "type": "VEC4"
    },
    {
      "bufferView": 1,
      "byteOffset": 3776,
      "componentType": 5126,
      "count": 300,
      "max": [
        0.41218298673629761,
        0.99558597803115845
      ],
      "min": [
        0.0067189601249992847,
        0.013367000035941601
      ],
      "type": "VEC2"
    },
    {
      "bufferView": 0,
      "byteOffset": 7296,
      "componentType": 5125,
      "count": 1014,
      "max": [
        299
      ],
      "min": [
        0
      ],
      "type": "SCALAR"
    }
  ],
  "asset": {
    "extras": {
      "author": "ArdianVrijenhoek (https://sketchfab.com/ArdianVrijenhoek)",
      "license": "CC-BY-4.0 (http://creativecommons.org/licenses/by/4.0/)",
      "source": "https://sketchfab.com/models/d19566b7806e4eff89d655536cb55dc2",
      "title": "Knife"
    },
    "generator": "Sketchfab-3.19.6",
    "version": "2.0"
  },
  "bufferViews": [
    {
      "buffer": 0,
      "byteLength": 11352,
      "byteOffset": 0,
      "name": "floatBufferViews",
      "target": 34963
    },
    {
      "buffer": 0,
      "byteLength": 6176,
      "byteOffset": 11352,
      "byteStride": 8,
      "name": "floatBufferViews",
      "target": 34962
    },
    {
      "buffer": 0,
      "byteLength": 18528,
      "byteOffset": 17528,
      "byteStride": 12,
      "name": "floatBufferViews",
      "target": 34962
    },
    {
      "buffer": 0,
      "byteLength": 12352,
      "byteOffset": 36056,
      "byteStride": 16,
      "name": "floatBufferViews",
      "target": 34962
    }
  ],
  "buffers": [
    {
      "byteLength": 48408,
      "uri": "faca.bin"
    }
  ],
  "images": [
    {
      "uri": "textures/DefaultMaterial_metallicRoughness.png"
    },
    {
      "uri": "textures/DefaultMaterial_normal.jpeg"
    },
    {
      "uri": "textures/DefaultMaterial_baseColor.jpeg"
    }
  ],
  "materials": [
    {
      "doubleSided": true,
      "emissiveFactor": [
        0,
        0,
        0
      ],
      "name": "DefaultMaterial",
      "normalTexture": {
        "index": 1,
        "scale": 1,
        "texCoord": 0
      },
      "occlusionTexture": {
        "index": 0,
        "strength": 1,
        "texCoord": 0
      },
      "pbrMetallicRoughness": {
        "baseColorFactor": [
          1,
          1,
          1,
          1
        ],
        "baseColorTexture": {
          "index": 2,
          "texCoord": 0
        },
        "metallicFactor": 1,
        "metallicRoughnessTexture": {
          "index": 0,
          "texCoord": 0
        },
        "roughnessFactor": 0.82594696970000003
      }
    }
  ],
  "meshes": [
    {
      "name": "defaultMaterial",
      "primitives": [
        {
          "attributes": {
            "NORMAL": 1,
            "POSITION": 0,
            "TANGENT": 2,
            "TEXCOORD_0": 3
          },
          "indices": 4,
          "material": 0,
          "mode": 4
        }
      ]
    },
    {
      "name": "defaultMaterial",
      "primitives": [
        {
          "attributes": {
            "NORMAL": 6,
            "POSITION": 5,
            "TANGENT": 7,
            "TEXCOORD_0": 8
          },
          "indices": 9,
          "material": 0,
          "mode": 4
        }
      ]
    }
  ],
  "nodes": [
    {
      "children": [
        1
      ],
      "name": "RootNode (gltf orientation matrix)",
      "rotation": [
        -0.70710678118654746,
        -0,
        -0,
        0.70710678118654757
      ]
    },
    {
      "children": [
        2
      ],
      "name": "RootNode (model correction matrix)"
    },
    {
      "children": [
        3,
        5
      ],
      "matrix": [
        1,
        0,
        0,
        0,
        0,
        -4.3711390063094768e-08,
        0.999999999999999,
        0,
        0,
        -0.999999999999999,
        -4.3711390063094768e-08,
        0,
        0,
        0,
        0,
        1
      ],
      "name": "Collada visual scene group"
    },
    {
      "children": [
        4
      ],
      "name": "Low_Bottom"
    },
    {
      "mesh": 0,
      "name": "defaultMaterial"
    },
    {
      "children": [
        6
      ],
      "name": "Low_Knife"
    },
    {
      "mesh": 1,
      "name": "defaultMaterial"
    }
  ],
  "samplers": [
    {
      "magFilter": 9729,
      "minFilter": 9987,
      "wrapS": 10497,
      "wrapT": 10497
    }
  ],
  "scene": 0,
  "scenes": [
    {
      "name": "OSG_Scene",
      "nodes": [
        0
      ]
    }
  ],
  "textures": [
    {
      "sampler": 0,
      "source": 0
    },
    {
      "sampler": 0,
      "source": 1
    },
    {
      "sampler": 0,
      "source": 2
    }
  ]
}

